<svg xmlns="http://www.w3.org/2000/svg" xmlns:xlink="http://www.w3.org/1999/xlink" preserveAspectRatio="xMidYMid meet" version="1.0" viewBox="0.0 0.0 62.0 62.0" zoomAndPan="magnify" style="fill: rgb(255, 255, 255);" original_string_length="3752"><g id="__id10_s97nbibpvl"><path d="M39,37c4.411,0,8-3.589,8-8s-3.589-8-8-8s-8,3.589-8,8S34.589,37,39,37z M39,23c3.309,0,6,2.691,6,6s-2.691,6-6,6 s-6-2.691-6-6S35.691,23,39,23z" style="fill: inherit;"/><path d="M41,29h2c0-2.206-1.794-4-4-4v2C40.103,27,41,27.897,41,29z" style="fill: inherit;"/><path d="M31,0c-1.572,0-3.17,0.135-4.758,0.38C25.532,0.139,24.78,0,24,0c-2.153,0-4.122,0.98-5.417,2.599 C7.287,7.544,0,18.653,0,31c0,17.094,13.906,31,31,31s31-13.906,31-31C62,13.907,48.094,0,31,0z M24,2 c2.021,0,3.82,1.209,4.583,3.082l4.871,11.954c-0.175,0.015-0.349,0.027-0.523,0.058c-0.5,0.088-0.974,0.254-1.426,0.462 l-4.776-11.72C26.276,4.721,25.204,4,24,4s-2.276,0.721-2.731,1.837l-9.048,22.242c-0.816,0.129-1.561,0.452-2.196,0.926 C10.021,28.942,10,28.882,10,28.819c0-0.414,0.079-0.818,0.234-1.2l9.183-22.538C20.18,3.209,21.979,2,24,2z M35.32,19.229 c1.689,0.609,3.683,0.423,5.61-0.521c1.236-0.605,2.624-0.83,4.019-0.646c2.992,0.392,5.499,2.833,5.962,5.806v0 c0.326,2.091-0.244,4.112-1.605,5.691c-1.084,1.256-1.557,3.032-1.33,5c0.048,0.417,0.026,0.847-0.063,1.276 c-0.325,1.551-1.637,2.825-3.19,3.1c-0.704,0.126-1.393,0.068-2.042-0.166c-1.689-0.606-3.682-0.422-5.611,0.521 c-1.234,0.605-2.623,0.831-4.018,0.647c-2.992-0.393-5.499-2.835-5.962-5.808c-0.326-2.091,0.244-4.112,1.605-5.691 c1.084-1.256,1.557-3.032,1.33-5c-0.048-0.417-0.026-0.847,0.063-1.276c0.325-1.551,1.637-2.825,3.19-3.099 C33.522,19.021,33.765,19,34.003,19C34.455,19,34.896,19.076,35.32,19.229z M25.072,32h-7.173c-0.152-0.743-0.482-1.416-0.924-2 h8.557C25.303,30.646,25.149,31.315,25.072,32z M28.131,21.753c-0.134,0.64-0.165,1.284-0.093,1.914 c0.093,0.815,0.106,2.348-0.857,3.466c-0.238,0.276-0.453,0.567-0.654,0.867H14.413l8.708-21.409C23.268,6.232,23.612,6,24,6 s0.731,0.231,0.878,0.59l4.936,12.115C28.98,19.521,28.377,20.575,28.131,21.753z M13,30c1.654,0,3,1.346,3,3 c0,0.009,0.003,0.02,0.003,0.029l-3.555,2.963l1.281,1.537l2.743-2.287c0.253,0.681,0.609,1.393,1.069,2.119l-2.913,2.496 l1.301,1.52l2.79-2.391c0.418,0.499,0.896,0.99,1.409,1.472l-2.58,2.58l1.414,1.414l2.702-2.702c0.536,0.405,1.1,0.796,1.709,1.163 l-2.125,2.429l1.506,1.316l2.425-2.771c0.792,0.374,1.649,0.694,2.539,0.982l-2.424,2.424l1.414,1.414l3.243-3.243 c0.905,0.192,1.838,0.352,2.826,0.439l-2.778,2.835l1.428,1.4l4.012-4.094C36.883,46.258,38,47.496,38,49c0,1.654-1.346,3-3,3 c-14.732,0-25-10.014-25-19C10,31.346,11.346,30,13,30z M8.459,30.936C8.17,31.567,8,32.262,8,33c0,9.933,11.089,21,27,21 c2.757,0,5-2.243,5-5s-2.243-5-5-5c-10.203,0-15.894-6.371-16.842-10h6.91c0.016,0.146,0.022,0.292,0.044,0.438 c0.606,3.893,3.764,6.97,7.679,7.482C33.193,41.974,33.595,42,33.994,42c1.375,0,2.723-0.309,3.954-0.912 c1.437-0.703,2.875-0.86,4.055-0.435c0.968,0.348,2.026,0.436,3.066,0.252c2.375-0.418,4.305-2.291,4.8-4.658 c0.135-0.641,0.165-1.285,0.093-1.915c-0.093-0.814-0.106-2.348,0.857-3.465c1.727-2.002,2.48-4.665,2.068-7.306 c-0.606-3.892-3.764-6.969-7.679-7.481c-1.788-0.232-3.568,0.055-5.157,0.833c-1.439,0.704-2.878,0.859-4.054,0.435 c-0.095-0.034-0.195-0.054-0.292-0.084l-4.588-11.26C44.848,6.067,56,17.254,56,31c0,13.785-11.215,25-25,25S6,44.785,6,31 c0-7.14,3.036-13.84,8.255-18.547L8.383,26.864C8.129,27.487,8,28.145,8,28.819C8,29.552,8.161,30.272,8.459,30.936z M31,60 C15.01,60,2,46.99,2,31C2,20.325,7.829,10.647,17.052,5.588L15.78,8.709C8.4,13.756,4,22.06,4,31c0,14.888,12.112,27,27,27 s27-12.112,27-27S45.888,4,31,4c-0.241,0-0.479,0.012-0.719,0.019c-0.34-0.73-0.793-1.379-1.337-1.933C29.632,2.036,30.32,2,31,2 c15.99,0,29,13.009,29,29C60,46.99,46.99,60,31,60z" style="fill: inherit;"/></g></svg>