<svg xmlns="http://www.w3.org/2000/svg" xmlns:xlink="http://www.w3.org/1999/xlink" preserveAspectRatio="xMidYMid meet" version="1.0" viewBox="-0.6 -0.7 401.3 377.1" zoomAndPan="magnify" style="fill: rgb(255, 255, 255);" original_string_length="3720" width="401px" height="377px"><g id="__id9_syfw9dbbe4r"><path d="M397.86,257.17l-47.71-42.92v-34.28h21.63c1.74,0,3.48-0.68,4.76-2.12c2.34-2.65,2.12-6.73-0.53-9.07l-28.88-25.73V94.84 c0-3.55-2.87-6.43-6.43-6.43h-28.66c-3.55,0-6.43,2.95-6.43,6.43v11.25l-61.7-54.95c-1.21-1.21-2.8-1.89-4.54-1.89H135.27 c-1.51,0-3.1,0.53-4.31,1.66l-72.13,66.01c-0.61-0.76-1.13-1.44-1.51-2.19c-0.76-1.36-1.21-2.87-1.21-4.69 c0-1.74,0.45-3.33,1.29-4.76c0.98-1.66,2.34-3.33,3.86-4.76c2.5-2.5,2.57-6.58,0.08-9.07s-6.58-2.57-9.07-0.08 c-2.27,2.19-4.39,4.69-6.05,7.64c-1.81,3.25-2.95,6.88-2.95,11.04c0,4.08,1.06,7.64,2.87,10.89c0.91,1.66,1.97,3.18,3.18,4.61 l-46.73,42.8C0.98,169.54,0,171.35,0,173.47c0,3.55,2.87,6.43,6.43,6.43h34.63v41.73c-0.42,0.45-0.78,0.97-1.06,1.53l-37.8,34.02 c-2.65,2.42-2.8,6.43-0.45,9.07c1.29,1.36,3.02,2.12,4.76,2.12h32.82v101.62c0,3.55,2.87,6.43,6.43,6.43h135.57h55.73h50.89h55.8 c3.55,0,6.43-2.87,6.43-6.43v-34.24c0,0,0-0.01,0-0.01s0-0.01,0-0.01v-38.39c0,0,0-0.01,0-0.01s0-0.01,0-0.01v-28.95h43.4 c1.74,0,3.48-0.68,4.76-2.12C400.74,263.6,400.51,259.52,397.86,257.17z M318.4,101.26h15.8v30.09l-15.8-14.21V101.26z M337.3,202.69l-69.93-62.91c-0.03-0.04-0.06-0.07-0.09-0.11c-1.46-1.64-3.58-2.32-5.62-2.04H196.7l44.29-39.85l89.77,79.95 c1.18,1.37,2.92,2.24,4.87,2.24h1.66V202.69z M262.52,197.47l74.78,67.3v26.12h-42.95v-21.4c0-3.55-2.87-6.43-6.43-6.43h-50.89 c-3.55,0-6.43,2.87-6.43,6.43v21.4h-42.87v-26.13L262.52,197.47z M294.35,303.75h42.95v25.56h-42.95V303.75z M187.74,342.16h42.87 v21.4h-42.87V342.16z M131.49,268.36h43.4v22.53H52.17v-22.53H131.49z M52.17,303.75h122.72v25.56H52.17V303.75z M187.74,303.75 h42.87v25.56h-42.87V303.75z M354.92,167.12h-10.25c-0.31-0.04-0.62-0.08-0.94-0.08s-0.63,0.03-0.94,0.08h-4.62l-92.89-82.73 c0,0,0,0-0.01-0.01l-0.07-0.06c-0.05-0.05-0.11-0.09-0.17-0.14c-0.1-0.08-0.2-0.17-0.3-0.24c-0.1-0.07-0.21-0.14-0.31-0.21 c-0.06-0.04-0.13-0.09-0.19-0.12c-2.6-1.54-6.02-1.1-8.1,1.24c-0.02,0.03-0.04,0.05-0.06,0.08c-5.55,4.99-49.11,44.12-58.6,52.7 h-22.64l84.55-73.42L354.92,167.12z M57.09,135.74c0.23,0.76,0.38,1.59,0.38,2.5c0,1.81-0.45,3.33-1.21,4.69 c-0.91,1.66-2.27,3.25-3.93,4.84c-2.5,2.5-2.57,6.58-0.08,9.07s6.58,2.57,9.07,0.08c2.42-2.34,4.61-4.84,6.2-7.79 c1.81-3.18,2.87-6.73,2.87-10.89c0-4.16-1.13-7.79-2.95-11.04l-0.3-0.53l70.62-64.65h84.53l-88.13,76.51 c-0.46,0.27-0.88,0.6-1.24,0.99l-50.36,45.31v-11.36c0-3.55-2.87-6.43-6.43-6.43H47.48c-0.64,0-1.25,0.1-1.84,0.28 c-0.59-0.18-1.22-0.28-1.87-0.28l-20.87,0L57.09,135.74z M69.71,199.25v19.36h-15.8V179.9h15.8V199.25z M49.98,231.46h26.16 c3.55,0,6.43-2.87,6.43-6.43v-22.91l57.39-51.64H245.7l-71.88,64.7l-44.83,40.33H45.74H23.21L49.98,231.46z M52.17,342.16h122.72 v21.4H52.17V342.16z M243.47,363.56v-87.63h38.03v87.63H243.47z M294.35,363.56v-21.4h42.95v21.4H294.35z M346.3,255.51 l-79.33-71.32c-2.38-2.32-6.22-2.37-8.75-0.13l-79.39,71.38h-30.6l114.26-102.77l76.43,68.69c0.33,0.37,0.7,0.7,1.1,0.99l36.9,33.17 H346.3z M324.82,31.4c-1.81-3.25-2.87-6.8-2.87-10.89c0-4.16,1.13-7.79,2.95-11.04c1.82-2.87,3.93-5.37,6.2-7.64 c2.5-2.5,6.58-2.42,9.07,0.08s2.42,6.58-0.08,9.07c-1.51,1.44-2.87,3.1-3.86,4.76c-0.83,1.44-1.29,3.02-1.29,4.76 c0,1.81,0.45,3.33,1.21,4.69c0.91,1.66,2.34,3.25,3.93,4.84c2.27,2.19,4.46,4.69,6.05,7.64c1.81,3.25,2.95,6.88,2.95,11.04 c0,4.16-1.06,7.71-2.87,10.89c-1.59,2.95-3.78,5.44-6.2,7.79c-2.5,2.5-6.58,2.42-9.07-0.08s-2.42-6.58,0.08-9.07 c1.66-1.59,3.02-3.18,3.93-4.84c0.76-1.36,1.21-2.87,1.21-4.69c0-1.74-0.53-3.33-1.29-4.76c-0.98-1.74-2.34-3.33-3.86-4.76 C328.61,36.84,326.49,34.35,324.82,31.4z" style="fill: inherit;"></path></g></svg>