<svg xmlns="http://www.w3.org/2000/svg" xmlns:xlink="http://www.w3.org/1999/xlink" preserveAspectRatio="xMidYMid meet" version="1.0" viewBox="16.0 33.2 481.1 462.8" zoomAndPan="magnify" style="fill: rgb(244, 240, 237);" original_string_length="6426"><g id="__id1_s97nbibpvl"><path d="M144 480H168V496H144z" style="fill: inherit;"/><path d="M104 384H128V416H104z" style="fill: inherit;"/><path d="M104 336H128V368H104z" style="fill: inherit;"/><path d="M104,308.98V320h24v-40h-0.035C125.285,293.147,116.135,303.963,104,308.98z" style="fill: inherit;"/><circle cx="88.77" cy="272" r="24" style="fill: inherit;"/><path d="M104 432H128V464H104z" style="fill: inherit;"/><path d="M64,320h24v-8.02c-9.05-0.172-17.37-3.362-24-8.607V320z" style="fill: inherit;"/><path d="M104 480H128V496H104z" style="fill: inherit;"/><path d="M144 336H168V368H144z" style="fill: inherit;"/><path d="M184 432H208V464H184z" style="fill: inherit;"/><path d="M184 384H208V416H184z" style="fill: inherit;"/><path d="M184 480H208V496H184z" style="fill: inherit;"/><path d="M144 432H168V464H144z" style="fill: inherit;"/><path d="M184 336H208V368H184z" style="fill: inherit;"/><path d="M144 384H168V416H144z" style="fill: inherit;"/><path d="M144 280H168V320H144z" style="fill: inherit;"/><path d="M64 336H88V368H64z" style="fill: inherit;"/><path d="M32 336H48V368H32z" style="fill: inherit;"/><path d="M34.945 36.908H82.945V52.908H34.945z" transform="rotate(-9.195 58.941 44.905)" style="fill: inherit;"/><path d="M179.465,89.178c-9.693,5.88-13.134,22.836-9.441,46.522c3.057,19.605,10.659,41.819,21.843,64.3h10.485 c0.417-2.133,1.688-4.091,3.693-5.307l54.719-33.194c3.779-2.291,8.698-1.085,10.989,2.69c2.292,3.778,1.087,8.698-2.69,10.989 L228.146,200h73c-4.235-8.796-8.996-17.612-14.254-26.279c-18.312-30.187-40.262-55.552-61.806-71.422 c-13.891-10.233-26.399-15.579-35.932-15.579C185.442,86.72,182.181,87.53,179.465,89.178z M248.316,140.979 c2.292,3.778,1.087,8.698-2.69,10.989l-41.039,24.895c-1.297,0.787-2.729,1.161-4.142,1.161c-2.705,0-5.343-1.371-6.848-3.852 c-2.292-3.778-1.087-8.698,2.69-10.989l41.039-24.895C241.106,135.997,246.026,137.204,248.316,140.979z M224.88,117.769 c2.292,3.778,1.087,8.698-2.69,10.989l-27.36,16.597c-1.297,0.787-2.729,1.161-4.142,1.161c-2.705,0-5.343-1.371-6.848-3.852 c-2.292-3.778-1.087-8.698,2.69-10.989l27.36-16.597C217.67,112.787,222.589,113.993,224.88,117.769z" style="fill: inherit;"/><path d="M88.77,232c11.448,0,21.78,4.841,29.078,12.575l39.242-92.097c-1.179-4.879-2.15-9.664-2.875-14.314 c-4.812-30.861,1.208-53.117,16.952-62.667c5.965-3.619,12.905-5.152,20.591-4.658c0.907-3.654-0.939-7.539-4.511-9.061 l-15.069-6.421c-1.919-0.818-4.042-0.84-5.977-0.061c-1.935,0.779-3.451,2.265-4.269,4.184L88.418,232.009 C88.536,232.008,88.652,232,88.77,232z" style="fill: inherit;"/><path d="M328.646,131.655c-1.871,3.426-3.427,7.087-4.574,10.982c-4.139,14.058-5.157,36.454-2.865,57.364h36.561L328.646,131.655z" style="fill: inherit;"/><path d="M384.386,262.471l-15.25-35.79L354.192,264h29.843C384.14,263.486,384.262,262.978,384.386,262.471z" style="fill: inherit;"/><path d="M304.436 345.208L356.179 216 186.168 216z" style="fill: inherit;"/><path d="M399.269,133.861c6.846,12.56,22.633,17.208,35.193,10.361c3.879-2.114,8.739-0.684,10.853,3.196 c2.114,3.879,0.684,8.738-3.196,10.853c-6.356,3.465-13.227,5.109-20.002,5.109c-3.732,0-7.435-0.5-11.01-1.467L427.335,200h60.768 c0.682,0,1.356,0.036,2.024,0.092c1.122-2.712,2.061-5.311,2.778-7.746c4.225-14.35,2.609-29.485-4.55-42.619 c-7.159-13.134-19.004-22.693-33.353-26.918c-7.979-2.349-16.381-2.877-24.553-1.582l-2.989,10.152 c-1.026,3.484-4.214,5.743-7.671,5.743c-0.748,0-1.509-0.105-2.263-0.328c-4.239-1.248-6.663-5.695-5.415-9.934l2.989-10.153 c-6.166-5.516-13.514-9.626-21.492-11.975c-2.519-0.742-5.048-1.286-7.573-1.659l12.855,30.169 C399.023,133.442,399.152,133.646,399.269,133.861z" style="fill: inherit;"/><path d="M394.153,244.575c7.298-7.734,17.63-12.575,29.078-12.575c0.118,0,0.234,0.008,0.352,0.009L350.068,59.48 c-0.818-1.919-2.334-3.405-4.269-4.184c-1.936-0.779-4.059-0.757-5.977,0.061l-15.069,6.421c-3.962,1.688-5.812,6.285-4.124,10.246 L394.153,244.575z" style="fill: inherit;"/><path d="M27.323,200h57.342l24.852-58.325l-5.226-2.087c-9.108-3.638-15.739-11.911-17.307-21.592l-8.41-51.954l-31.589,5.114 l8.411,51.953c1.567,9.682-2.116,19.625-9.611,25.95l-13.943,11.766c-5.895,4.974-8.791,12.794-7.558,20.407L27.323,200z" style="fill: inherit;"/><path d="M184 280H208V320H184z" style="fill: inherit;"/><path d="M87.598,496H88v-16H48.62C58.661,489.886,72.427,496,87.598,496z" style="fill: inherit;"/><path d="M32 280H48V320H32z" style="fill: inherit;"/><path d="M64 432H88V464H64z" style="fill: inherit;"/><path d="M32 384H48V416H32z" style="fill: inherit;"/><path d="M68.726,237.406L77.847,216H23.896c-4.354,0-7.896,3.542-7.896,7.896v32.207c0,4.354,3.542,7.896,7.896,7.896h25.678 C51.886,252.657,59.019,243.053,68.726,237.406z" style="fill: inherit;"/><path d="M64 384H88V416H64z" style="fill: inherit;"/><path d="M32,440.402c0,8.434,1.897,16.429,5.271,23.598H48v-32H32V440.402z" style="fill: inherit;"/><path d="M154.233,200h19.877c-3.712-7.962-6.985-15.879-9.795-23.662L154.233,200z" style="fill: inherit;"/><path d="M384 336H408V368H384z" style="fill: inherit;"/><path d="M344 336H368V368H344z" style="fill: inherit;"/><path d="M384.035,280H384v40h24v-11.02C395.865,303.963,386.715,293.147,384.035,280z" style="fill: inherit;"/><path d="M424 384H448V416H424z" style="fill: inherit;"/><circle cx="423.23" cy="272" r="24" style="fill: inherit;"/><path d="M344 289.451L344 320 368 320 368 280 347.785 280z" style="fill: inherit;"/><path d="M384 480H408V496H384z" style="fill: inherit;"/><path d="M384 432H408V464H384z" style="fill: inherit;"/><path d="M384 384H408V416H384z" style="fill: inherit;"/><path d="M424 432H448V464H424z" style="fill: inherit;"/><path d="M464 336H480V368H464z" style="fill: inherit;"/><path d="M464 384H480V416H464z" style="fill: inherit;"/><path d="M424 336H448V368H424z" style="fill: inherit;"/><path d="M488.104,216h-53.951l9.121,21.406c9.707,5.646,16.84,15.25,19.152,26.594h25.678c4.354,0,7.896-3.542,7.896-7.896v-32.207 C496,219.542,492.458,216,488.104,216z" style="fill: inherit;"/><path d="M464 280H480V320H464z" style="fill: inherit;"/><path d="M464,464h10.729c3.375-7.168,5.271-15.164,5.271-23.598V432h-16V464z" style="fill: inherit;"/><path d="M448,303.373c-6.63,5.245-14.95,8.435-24,8.607V320h24V303.373z" style="fill: inherit;"/><path d="M424,496h0.402c15.171,0,28.936-6.114,38.978-16H424V496z" style="fill: inherit;"/><path d="M224 320L248 320 248 307.249 224 281.029z" style="fill: inherit;"/><path d="M264 480H288V496H264z" style="fill: inherit;"/><path d="M147.415,216l-19.801,46.472c0.124,0.507,0.246,1.014,0.351,1.528h80.448l-43.936-48H147.415z" style="fill: inherit;"/><path d="M224 336H248V368H224z" style="fill: inherit;"/><path d="M264 432H288V464H264z" style="fill: inherit;"/><path d="M224 432H248V464H224z" style="fill: inherit;"/><path d="M224 480H248V496H224z" style="fill: inherit;"/><path d="M224 384H248V416H224z" style="fill: inherit;"/><path d="M264 384H288V416H264z" style="fill: inherit;"/><path d="M304,368h3.13c-1.082,0-2.146-0.224-3.13-0.642V368z" style="fill: inherit;"/><path d="M314.557,362.974c-1.023,2.554-3.287,4.403-5.993,4.896c-0.478,0.087-0.958,0.129-1.434,0.129H328v-32h-2.641 L314.557,362.974z" style="fill: inherit;"/><path d="M304 384H328V416H304z" style="fill: inherit;"/><path d="M344 384H368V416H344z" style="fill: inherit;"/><path d="M344 432H368V464H344z" style="fill: inherit;"/><path d="M264 336L264 368 288 368 288 350.949 274.317 336z" style="fill: inherit;"/><path d="M344 480H368V496H344z" style="fill: inherit;"/><path d="M304 432H328V464H304z" style="fill: inherit;"/><path d="M304 480H328V496H304z" style="fill: inherit;"/><path d="M424.611,111.383c1.007,0.42,2.051,0.619,3.078,0.619c3.132,0,6.105-1.851,7.386-4.921 c8.9-21.326,27.572-37.527,49.948-43.338c4.277-1.111,6.843-5.478,5.732-9.754c-1.11-4.277-5.48-6.845-9.754-5.732 c-27.188,7.061-49.877,26.748-60.692,52.662C418.608,104.997,420.534,109.681,424.611,111.383z" style="fill: inherit;"/></g></svg>