<svg xmlns="http://www.w3.org/2000/svg" xmlns:xlink="http://www.w3.org/1999/xlink" preserveAspectRatio="xMidYMid meet" version="1.0" viewBox="-0.9 0.0 401.5 389.9" zoomAndPan="magnify" style="fill: rgb(255, 255, 255);" original_string_length="7230" width="402px" height="390px"><g id="__id8_syfw9dbbe4r"><path d="M328.04,143.37c4.25,7.36,7.95,13.78,10.47,18.49c0.57,1.1,1.47,2.04,2.65,2.66c3.12,1.66,7,0.48,8.66-2.63 c2.5-4.68,6.19-11.07,10.42-18.42c16.04-27.83,39.76-69,39.76-87.64c0-15.39-6.25-29.35-16.35-39.45l-0.03-0.03 C373.52,6.25,359.57,0,344.17,0c-15.4,0-29.35,6.25-39.45,16.35l-0.03,0.03c-10.1,10.1-16.35,24.05-16.35,39.45h0 C288.35,74.53,312,115.54,328.04,143.37z M313.77,25.43L313.77,25.43c7.78-7.76,18.52-12.57,30.4-12.57 c11.88,0,22.62,4.81,30.4,12.57c7.76,7.77,12.57,18.52,12.57,30.4c0,15.31-22.67,54.66-38,81.26l-4.97,8.65l-5.03-8.75 c-15.34-26.6-37.94-65.8-37.94-81.16C301.2,43.95,306.01,33.2,313.77,25.43z M361.93,71.93c4.54-4.54,7.36-10.82,7.36-17.75 s-2.81-13.21-7.36-17.75c-4.54-4.54-10.82-7.36-17.76-7.36c-6.93,0-13.21,2.81-17.76,7.36c-4.54,4.54-7.35,10.82-7.35,17.75 s2.81,13.21,7.35,17.75s10.82,7.36,17.76,7.36C351.11,79.28,357.39,76.47,361.93,71.93z M331.92,54.17c0-3.38,1.37-6.45,3.59-8.66 c2.21-2.21,5.28-3.59,8.67-3.59c3.38,0,6.45,1.37,8.67,3.59c2.21,2.21,3.59,5.28,3.59,8.66c0,3.38-1.37,6.45-3.59,8.66 c-2.21,2.21-5.28,3.59-8.67,3.59c-3.38,0-6.45-1.37-8.67-3.59C333.29,60.62,331.92,57.55,331.92,54.17z M186.96,71 c9.58,0,18.3-3.82,24.7-10.03l0.4-0.37c6.42-6.42,10.4-15.3,10.4-25.1c0-9.76-3.97-18.62-10.4-25.08l-0.03-0.03 C205.6,3.97,196.73,0,186.96,0c-9.8,0-18.68,3.98-25.09,10.41c-6.43,6.44-10.41,15.31-10.41,25.09c0,9.8,3.98,18.68,10.4,25.1 C168.28,67.02,177.16,71,186.96,71z M170.93,19.49h0.03c4.1-4.09,9.76-6.63,16.01-6.63c6.27,0,11.93,2.53,16.01,6.61 c0,0,0.03,0.03,0.03,0.03c4.08,4.08,6.6,9.74,6.6,16.01c0,6.25-2.54,11.92-6.63,16.01l-0.29,0.31c-4.05,3.91-9.6,6.32-15.72,6.32 c-6.25,0-11.92-2.54-16.01-6.63c-4.1-4.09-6.63-9.76-6.63-16.01C164.32,29.23,166.85,23.57,170.93,19.49z M186.96,0L186.96,0 L186.96,0L186.96,0z M388.98,165.46L388.98,165.46c-42.98,44.17-71.28,65.75-99.6,79.04l-35.97-76.79c4.57-0.6,8.72-2.57,11.91-5.6 l0.42-0.39c3.86-3.86,6.26-9.2,6.26-15.06c0-5.87-2.4-11.2-6.26-15.06c-3.84-3.84-9.18-6.23-15.06-6.24l-40.1-0.04l-35.39-42.67 c-1.52-1.72-4.98-4.54-8.57-6.7c-2.79-1.68-5.87-3.12-8.64-3.69c-6.23-2.09-12.67-2.19-18.62-0.66l0.25-0.68 c1.37-3.71,1.1-7.65-0.46-11.01c-1.55-3.36-4.37-6.14-8.09-7.51l-38.9-14.38c-0.27-0.12-0.56-0.23-0.86-0.31 c-3.57-1.18-7.31-0.87-10.52,0.62c-3.21,1.48-5.88,4.11-7.31,7.58c-0.13,0.28-0.24,0.57-0.33,0.87l-36.61,99.03 c-1.37,3.71-1.1,7.66,0.45,11.01c1.54,3.35,4.37,6.13,8.1,7.5l39.28,14.52c0.37,0.13,0.74,0.1,1.11,0.17 c-2.93,8.7-2.6,16.48,0.39,23.18c3.21,7.21,9.35,12.91,17.47,17.06l0.38,0.19v48.46l-41.09,47.51c-13.6,6.88-25.59,14.9-35.94,24.89 C16.26,350.37,7.55,362.37,0.6,377.16c-1.5,3.2-0.11,7.02,3.09,8.51c3.2,1.5,7.02,0.11,8.51-3.09 c6.24-13.27,14.03-24.04,23.35-33.04c2.58-2.49,5.32-4.83,8.14-7.08c-0.22,1.52-0.31,3.05-0.2,4.57c0.38,5.25,2.7,10.38,6.85,14.18 c0.29,0.3,0.6,0.57,0.93,0.8c4.36,3.55,9.75,5.1,14.98,4.72c5.44-0.39,10.74-2.86,14.58-7.3l47.56-54.98l14.59-4.31l18.43-5.37 c5.22-1.5,9.65-2.76,14.02-3.96c2.03-0.56,4.08-1.11,6.24-1.69l7.37,39.04c0.32,1.68,0.87,3.25,1.55,4.74 c-1.03-0.63-2.24-1.07-3.77-0.99c-0.45,0.05-0.8,0.1-1.24,0.21c-4.19,1.12-8.42,2.32-12.55,3.62c-7.35,2.32-5.2,13.35,2.7,12.52 c0.38-0.06,0.71-0.12,1.08-0.23c3.99-1.26,8.11-2.42,12.15-3.51c3.51-0.93,4.94-4.01,4.62-6.9c1.3,1.58,2.74,3.03,4.41,4.17 c4.38,2.99,9.87,4.36,15.46,3.44c0.34-0.04,0.69-0.1,1.02-0.2c5.53-1.19,10.12-4.47,13.1-8.82c0.22-0.32,0.36-0.68,0.55-1.01 l9.67-2.09c7.38-1.55,6.42-12.71-1.46-12.71c-0.45,0.02-0.81,0.05-1.25,0.15l-4.06,0.88c-0.05-0.39-0.03-0.77-0.1-1.16l-7.84-41.54 c23.08-5.61,41.96-10.33,60.03-17.47l14.11,30.11c1.5,3.2,5.31,4.59,8.51,3.09c3.2-1.5,4.59-5.31,3.09-8.51l-13.93-29.74 c29.43-13.75,58.75-36.06,103.29-81.84c2.47-2.54,2.41-6.6-0.12-9.06C395.5,162.87,391.44,162.92,388.98,165.46z M49.5,152.28 c-0.39-0.14-0.7-0.45-0.87-0.82c-0.17-0.36-0.19-0.8-0.04-1.22l36.75-99.42c0.15-0.38,0.44-0.68,0.79-0.84h0.02 c0.36-0.17,0.8-0.2,1.21-0.04l39.28,14.52c0.4,0.15,0.71,0.45,0.87,0.8v0.02c0.17,0.37,0.2,0.81,0.05,1.22l-6.5,17.58 c-1.86,2.52-3.5,5.24-4.61,8.33l-26.86,74.9c-0.28-0.16-0.5-0.39-0.81-0.5h0L49.5,152.28z M71.15,351.07 c-1.51,1.75-3.62,2.72-5.79,2.88c-2.18,0.16-4.42-0.5-6.17-2.01l-0.06-0.05c-1.71-1.51-2.67-3.6-2.83-5.74 c-0.16-2.18,0.5-4.42,2.01-6.17l56.66-65.5c1.05-1.21,1.56-2.71,1.58-4.19v-45.4l16.89,7.07c-0.07,14.65-0.46,29.87,0.05,44.28 c-0.04,0.87-0.22,1.75-0.54,2.6c-0.34,0.9-0.84,1.76-1.5,2.52L71.15,351.07z M172.07,278.48c-4.16,1.14-8.65,2.42-14.17,4.01 l-14.58,4.23c0.65-1.09,1.2-2.22,1.63-3.37c0.83-2.2,1.27-4.51,1.35-6.84c0.63-12.42,0.29-26.08,0.12-39.12l27.66,11.59l5.2,27.56 C176.94,277.15,174.57,277.79,172.07,278.48z M211.55,332.56l-0.09,0.02c-2.25,0.4-4.48-0.15-6.25-1.36 c-1.8-1.23-3.13-3.13-3.56-5.41l-15.59-82.62c-0.41-2.21-1.92-3.94-3.84-4.74l-39.74-16.64c-0.04-0.02-0.08-0.03-0.12-0.05 l-29.66-12.42c-0.04-0.02-0.08-0.03-0.12-0.05l-3.46-1.45c-5.53-2.83-9.6-6.47-11.55-10.86c-1.76-3.95-1.86-8.77,0.18-14.47 l30.76-85.79c1.87-5.2,5.71-9.18,10.4-11.39c4.69-2.21,10.21-2.65,15.41-0.79c0.35,0.13,0.7,0.22,1.06,0.28l0,0.02 c1.16,0.2,2.88,1.06,4.62,2.11c2.44,1.47,4.56,3.09,5.46,4.04l37.15,44.83c1.37,1.65,3.4,2.45,5.39,2.31l42.69,0.05 c2.3,0,4.42,0.97,5.97,2.52c1.53,1.53,2.49,3.65,2.49,5.97c0,2.32-0.95,4.44-2.49,5.97l-0.24,0.26c-1.51,1.38-3.52,2.23-5.73,2.23 v0.03l-50.21,0c-1.17-0.02-2.35-0.28-3.43-0.78c-1.03-0.47-1.98-1.16-2.77-2.05l-35.31-39.76c-2.34-2.65-6.39-2.89-9.04-0.55 c-2.65,2.34-2.89,6.39-0.55,9.04l9.47,10.66l-21.44,59.8h0c-1.12,3.12,0.34,6.55,3.27,7.94l53.55,25.63 c2.17,1.21,3.99,2.37,5.2,3.61c0.9,0.92,1.53,2,1.79,3.4l17.1,90.58c0.43,2.29-0.12,4.55-1.34,6.35 C215.73,330.8,213.83,332.13,211.55,332.56z M220.69,266.14l-6.88-36.43c-0.78-4.15-2.6-7.32-5.21-9.98 c-2.29-2.35-5.03-4.14-8.12-5.85l-49.09-23.5l17.13-47.77l16.16,18.19c2.02,2.27,4.43,4.02,7.03,5.21c2.7,1.23,5.62,1.89,8.55,1.93 l39.1,0l38.22,81.59C260.44,256.29,242.48,260.84,220.69,266.14z M153.27,356.53L153.27,356.53c-4.03,1.71-7.69,3.62-11.61,5.5 c-7.91,3.08-12.54-7.89-5.55-11.59c3.97-2.06,8.34-4.26,12.49-5.89C156.42,341.96,160.76,353.2,153.27,356.53z M383.47,277.66 L383.47,277.66c-3.37,3-6.94,5.78-10.59,8.41c-0.51,0.35-0.9,0.55-1.46,0.78c-7.54,2.51-11.81-7.26-6-11.25 c3.29-2.34,6.52-4.88,9.54-7.57C381.29,262.54,389.78,271.8,383.47,277.66z M275.57,324.68c-4.2,1.01-8.4,1.96-12.61,2.94 c-0.42,0.09-0.77,0.13-1.21,0.16c-8.13,0-8.82-11.18-1.63-12.69c4.15-0.96,8.29-1.9,12.43-2.9 C280.96,310.41,283.74,322.53,275.57,324.68z M317.66,307.8c0.16,2.97-1.64,5.56-4.45,6.5h0c-4.16,1.3-8.3,2.58-12.49,3.8 c-0.92,0.24-1.47,0.27-2.43,0.22c-7.21-0.8-7.68-10.85-1.13-12.57c4.06-1.19,8.07-2.42,12.11-3.69 C313.24,300.73,317.43,303.65,317.66,307.8z M122.19,375.34c-2.92,2.61-5.65,5.46-8.09,8.53c-0.23,0.28-0.46,0.53-0.73,0.78 c-6.14,5.26-14.09-2.84-9.34-8.77c2.89-3.64,6.1-7.01,9.57-10.11c0.42-0.39,0.86-0.66,1.37-0.94 C121.9,361.57,127.62,370.3,122.19,375.34z M349.89,299.7L349.89,299.7c-3.96,1.96-7.97,3.78-12.04,5.51 c-8,3.11-12.7-8.42-4.99-11.85c3.83-1.64,7.6-3.34,11.34-5.19c1.61-0.85,3.48-0.83,5.16-0.23 C354.59,290.09,354.92,297.04,349.89,299.7z" style="fill: inherit;"></path></g></svg>