<svg xmlns="http://www.w3.org/2000/svg" xmlns:xlink="http://www.w3.org/1999/xlink" preserveAspectRatio="xMidYMid meet" version="1.0" viewBox="315.8 565.5 1821.0 1318.8" zoomAndPan="magnify" style="fill: rgb(0, 0, 0);" original_string_length="1131"><g id="__id0_s97nbibpvl"><path d="M 1434.941406 1112.765625 L 1178.347656 1475.371094 L 1019.335938 1242.011719 L 1378.390625 620.085938 L 1711.761719 1197.433594 Z M 773.945312 1547.890625 L 646.445312 1360.742188 L 936.894531 857.605469 L 1068.886719 1086.183594 L 928.011719 1330.164062 Z M 2133.640625 1858.039062 L 1393.570312 576.34375 C 1387.277344 565.5 1369.515625 565.5 1363.210938 576.34375 L 1089.078125 1051.167969 L 952.074219 813.808594 C 945.832031 803.019531 928.011719 803.019531 921.742188 813.808594 L 318.871094 1858.039062 C 315.75 1863.441406 315.75 1870.132812 318.871094 1875.582031 C 322.019531 1880.980469 327.78125 1884.292969 334.050781 1884.292969 L 2118.433594 1884.292969 C 2124.699219 1884.292969 2130.496094 1880.980469 2133.640625 1875.582031 C 2136.734375 1870.132812 2136.734375 1863.441406 2133.640625 1858.039062" style="fill: rgb(244, 240, 237);"/></g></svg>